PathFileType	4	(X/Y/Z)	Patient4_TMGait_0pt6_02_left_34.trc.trc
DataRate	CameraRate	NumFrames	NumMarkers	Units	OrigDataRate	OrigDataStartFrame	OrigNumFrames
82.352941176470	82.352941176470	4	33	mm	82.352941176470	53	       141
Frame#	Time	Sacral			L.Shoulder			Chest			R.Shoulder			Neck			R.ASIS			L.ASIS			R.Thigh.Superior			R.Thigh.Lateral			R.Thigh.Inferior			R.Patella			L.Thigh.Superior			L.Thigh.Lateral			L.Thigh.Inferior			L.Patella			L.Shank.Superior			L.Shank.Lateral			L.Shank.Inferior			R.Shank.Superior			R.Shank.Lateral			R.Shank.Inferior			R.Heel			R.Midfoot.Superior			R.Midfoot.Lateral			R.Toe			L.Heel			L.Midfoot.Lateral			L.Midfoot.Superior			L.Toe			L.Elbow			L.Wrist			R.Elbow			R.Wrist			
		X1	Y1	Z1	X2	Y2	Z2	X3	Y3	Z3	X4	Y4	Z4	X5	Y5	Z5	X6	Y6	Z6	X7	Y7	Z7	X8	Y8	Z8	X9	Y9	Z9	X10	Y10	Z10	X11	Y11	Z11	X12	Y12	Z12	X13	Y13	Z13	X14	Y14	Z14	X15	Y15	Z15	X16	Y16	Z16	X17	Y17	Z17	X18	Y18	Z18	X19	Y19	Z19	X20	Y20	Z20	X21	Y21	Z21	X22	Y22	Z22	X23	Y23	Z23	X24	Y24	Z24	X25	Y25	Z25	X26	Y26	Z26	X27	Y27	Z27	X28	Y28	Z28	X29	Y29	Z29	X30	Y30	Z30	X31	Y31	Z31	X32	Y32	Z32	X33	Y33	Z33	

53	42.131428571429	803.147578568645	1012.428314813919	433.211963671754	1003.183518349877	1438.169062101353	257.709351286933	1099.440421578060	1364.263447836125	420.030630296235	1013.013016616735	1441.093416026489	590.919887005135	996.784142699587	1496.961715007946	409.541800363480	1026.779623206607	948.156420898036	555.681221267651	1021.426756966571	963.115156930728	282.140868591438	1119.029917304797	789.505591879180	522.284198252747	1091.806076148041	667.572751326875	595.892839127667	1181.567306878079	634.522068133826	512.398547756978	1209.047030137490	519.624522714038	534.529767254156	1070.193573356626	752.837901928309	316.837891789739	983.059067245492	636.344028667161	258.635391414977	1063.260588890531	559.740528637337	328.478537186808	1062.271426670889	490.204305438478	340.294394895294	1035.620404552621	418.184393713620	331.257268301331	947.067018585813	302.844968604024	281.785493473650	996.257866638453	193.545148166323	356.333804197960	1131.030438977768	444.100911273644	544.075462206673	1008.430861769067	407.525112294678	603.816531093435	992.845248831846	298.059231487352	557.444674389630	796.031403630865	252.040012291125	526.988815802285	951.966009520787	167.875210684087	569.546846326999	842.832343556520	181.580167696950	599.035450462931	998.602116286679	46.328458233969	593.082390631668	867.596533321416	38.058634070059	401.560323233740	939.532235871483	35.746275236459	318.820006663399	1022.928209308651	96.926706625498	344.444731184345	1151.038622089679	45.434288581285	312.263850152511	1012.823530412104	1091.396962956415	120.248761888301	1165.279276611951	877.798942397593	132.625051925209	947.537466406433	1094.480331353179	703.151267570756	1033.373624341078	846.894596052751	693.244868250903	
54	42.143571428571	802.486019716656	1012.978875765084	432.193784828032	1004.877218362857	1438.779988146596	257.791888251583	1099.705396778096	1364.256355784136	420.626470335883	1012.381290964480	1440.974908657794	591.045627992648	997.434846236530	1497.290064027711	409.732449502892	1025.737913440900	948.946280042820	555.547599838793	1021.171575529237	963.316144799264	281.941592466988	1119.964328562016	793.383974221063	521.139074850696	1095.543278008935	671.067544571378	595.142306784003	1185.271926768583	639.539987281645	511.058097343450	1215.434037742888	525.565973528998	533.327445724857	1067.945619068948	751.947744747156	316.869961828358	979.672898853101	636.368618853506	258.326971690872	1058.679784737706	558.900339939555	328.490077055068	1056.936914565842	489.481399522674	340.308333340171	1030.024403646369	417.768226598897	331.160320016337	941.034470293753	302.835059807224	281.585132294619	989.413673152363	193.307245935012	356.290772704451	1139.874859829004	447.957278361642	543.371573133311	1018.782049268074	407.023354067310	603.314098817835	1007.149306381657	296.879809471894	557.193348243728	811.632391374686	242.456485431745	527.371480625291	971.560606913671	165.818943601087	569.435261367539	862.056988122198	174.680948160719	599.647764056754	1024.077092138324	46.985053219424	593.536012060903	860.243287291639	38.094401048179	401.515832496658	932.215959453026	35.743559257147	318.789880501258	1015.686403872146	96.843641391392	344.433456187759	1143.789057651212	45.114625282293	312.254074448842	1019.941047463413	1093.556116422493	118.101993645191	1183.815412802541	888.615077790636	131.410293945500	939.717357935662	1095.830403597787	702.901144065096	1007.536972050937	842.110258670215	696.082752382992	
55	42.155714285714	801.864581036778	1013.474847011444	431.259572010138	1006.677306763502	1439.281133918809	257.978203212093	1100.062952100376	1364.124475405398	421.312151481561	1011.867060811637	1440.776796310192	591.250631276277	998.181580697213	1497.522180929978	410.005885654441	1024.729724760936	949.565625147778	555.467909460293	1020.971986143560	963.444952683292	281.803694167128	1120.646753318828	796.819080329112	520.283532371748	1098.595005555637	674.140475225462	594.582439380058	1188.333761601369	643.981586619796	510.085030100725	1220.916391681434	531.129383830214	532.468361564808	1065.675779764039	751.026375336651	316.970316051340	976.284649701830	636.365816122338	258.027992889724	1054.084087639145	558.042073264957	328.477848900557	1051.598575931905	488.755136999674	340.265818785041	1024.427232538312	417.336904146066	331.037708115093	935.003758753338	302.813985049554	281.368563782807	982.572022289361	193.064167955380	356.229049727555	1148.153303642084	451.421101390696	542.909163064632	1028.948934995864	405.715453957456	603.099911990976	1021.692018742758	295.040380852518	557.157004195286	828.047876228305	231.637818738992	528.029951435838	991.859980595122	163.148911603851	569.477737542598	882.208539347164	166.849527918519	600.500326261592	1050.521049046949	47.382154173338	594.095956326772	852.902497119115	38.139379547981	401.467336702017	924.904574043050	35.737438176351	318.760442984476	1008.453471053336	96.756244238712	344.416372602878	1136.545659059642	44.786378293446	312.240741462957	1026.686751739133	1095.666820613201	116.209950004699	1201.586260452137	900.136993574554	130.550291365802	931.976388951150	1097.387701507090	702.852587170299	982.554773828312	839.256159254481	698.476871893042	
56	42.167857142857	801.296744172639	1013.913003742560	430.416831578446	1008.543785778971	1439.660308938918	258.267682045941	1100.507708057672	1363.871354680397	422.076626918312	1011.481645710092	1440.508053024351	591.535853167454	999.024648923583	1497.654580369122	410.355563455281	1023.772366035305	950.012581558046	555.452145227719	1020.837350479483	963.505840626616	281.725276142124	1121.069151186912	799.746047944579	519.705846252541	1100.918209069303	676.712847137674	594.210605855594	1190.713539160793	647.752107349532	509.476755031956	1225.434953900941	536.210858123365	531.940720800347	1063.426378525564	750.079858790544	317.111553770238	972.908300929803	636.333435145627	257.746048873578	1049.504175192453	557.166456476758	328.432847551693	1046.288032418832	488.026584930216	340.171378976718	1018.858932873646	416.889305573709	330.896649790551	928.995374745949	302.785600747013	281.141483815952	975.752471671611	192.816977074854	356.151631711529	1155.791002812404	454.449850473434	542.676876142088	1038.930184883540	403.622424172734	603.196591306188	1036.423578217965	292.627217974186	557.338039823609	845.339255409706	219.779401966330	528.995516374455	1012.781823461856	160.024959992262	569.683941712461	903.281184788720	158.284463934356	601.595699532317	1077.736655667779	47.712788892509	594.718891244423	845.576675036958	38.197317743174	401.411438471709	917.599245951038	35.730085425432	318.730754288304	1001.230087344496	96.667303999866	344.393855752536	1129.307517666872	44.452812723609	312.222753847021	1033.087513554100	1097.678130089991	114.583748730799	1218.512714768248	912.265940158576	130.040616176320	924.240768333029	1099.188074577430	702.981046617480	958.673586935395	838.170255543200	700.443577534729	
